<svg width="20" height="27" viewBox="0 0 20 27" fill="none" xmlns="http://www.w3.org/2000/svg">
<path d="M4.89587 0.125C4.89587 1.37495 4.89587 2.7499 4.77066 3.99985H14.6626C14.6626 3.24988 14.6626 0.125 14.5374 0.125H4.89587ZM4.77066 5.1248C4.77066 7.99969 6.39845 10.8746 9.77924 10.8746C13.2852 10.8746 14.7878 7.99969 14.7878 5.1248H4.77066ZM4.14459 12.4995C2.01594 12.4995 0.262939 14.2494 0.388153 16.3744V23.3741C0.388153 24.1241 1.89073 26.249 2.76723 26.249H5.27152L14.6626 12.4995H11.9079L9.77924 15.1244L7.52538 12.3745L4.14459 12.4995ZM16.2904 12.6245L7.02452 26.374H16.5408C18.419 26.374 19.1703 23.9991 19.1703 23.1241V16.2494C19.1703 14.7494 18.7947 12.8745 17.5425 12.6245C17.4173 12.4995 16.666 12.6245 16.2904 12.6245Z" fill="#A6ACB1"/>
</svg>
