<svg width="29" height="14" viewBox="0 0 29 14" fill="none" xmlns="http://www.w3.org/2000/svg">
<path d="M3.64055 12.9995L0.259766 0.499984H2.01277L3.89099 8.74966C4.14142 9.62463 4.26663 10.4996 4.39185 11.3746C4.76749 9.99961 4.8927 9.24964 5.01792 8.99965L7.39699 0.499984H9.40043L11.1534 6.87474C11.6543 8.49967 11.9047 9.87462 12.1551 11.2496C13.2821 4.62482 10.903 15.7494 12.7812 8.49967L14.7846 0.499984H16.4124L13.0316 12.9995H11.4039L8.77435 3.49987C8.52392 2.7499 8.39871 2.24992 8.39871 1.99993C8.27349 2.6249 8.14827 3.12488 8.02306 3.49987L5.39356 12.9995H3.64055ZM27.0557 8.49967L28.6834 8.87466C28.3078 10.2496 27.6817 11.2496 26.8052 11.9995C25.9287 12.7495 24.8018 13.1245 23.5497 13.1245C22.1723 13.1245 21.0454 12.8745 20.2941 12.2495C19.4176 11.7495 18.7915 10.8746 18.4159 9.87462C17.915 8.87466 17.7898 7.7497 17.7898 6.49975C17.7898 5.2498 18.0402 3.99985 18.5411 3.12488C19.0419 2.12492 19.7932 1.37495 20.6697 0.874971C21.5462 0.374991 22.5479 0.125 23.6749 0.125C24.927 0.125 25.9287 0.499984 26.8052 1.12496C27.6817 1.74994 28.3078 2.6249 28.5582 3.87485L26.8052 4.24984C26.5548 3.37487 26.0539 2.6249 25.5531 2.24992C25.0522 1.87493 24.3009 1.62494 23.4244 1.62494C22.4227 1.62494 21.6714 1.87493 21.0454 2.37491C20.4193 2.87489 19.9184 3.49987 19.668 4.24984C19.4176 4.99981 19.2924 5.74978 19.2924 6.62474C19.2924 7.7497 19.4176 8.62467 19.7932 9.37464C20.0436 10.1246 20.5445 10.7496 21.2958 11.1246C22.0471 11.4996 22.6732 11.7495 23.4244 11.7495C24.3009 11.7495 25.1774 11.4996 25.8035 10.9996C26.4296 10.4996 26.8052 9.62463 27.0557 8.49967Z" fill="#A6ACB1"/>
</svg>
