<svg width="1167" height="140" viewBox="0 0 1167 140" fill="none" xmlns="http://www.w3.org/2000/svg">
<path d="M1153.23 0H13.7741C6.136 0 0.000488281 6.125 0.000488281 13.75V126.25C0.000488281 133.875 6.136 140 13.7741 140H1153.23C1160.86 140 1167 133.875 1167 126.25V13.75C1167 6.125 1160.86 0 1153.23 0ZM1015.87 2.5H1100.89V79.375H1015.87V2.5ZM59.4774 2.5H123.712V78.375L59.4774 54.625V2.5ZM126.217 2.5H200.719V79.375H126.217V2.5ZM165.284 120.625V137.5H112.067V120.625H165.284ZM109.563 120V137.5H59.4774V96L109.563 120ZM1100.89 137.5H1016.49V120.625H1100.89V137.5ZM1015.87 80.625H1101.51C1101.89 80.625 1102.14 80.375 1102.14 80V2.5H1153.23C1159.49 2.5 1164.49 7.5 1164.49 13.75V126.25C1164.49 132.5 1159.49 137.5 1153.23 137.5H1102.14V120C1102.14 119.625 1101.89 119.375 1101.51 119.375H1016.49V117.5H1012.74V137.5H169.04V117.5H165.284V119.375H111.567L59.1017 94.375C58.8513 94.25 58.7261 94.25 58.4756 94.375C58.3504 94.5 58.2252 94.75 58.2252 94.875V137.375H13.7741C7.51336 137.375 2.50478 132.375 2.50478 126.125V13.75C2.50478 7.5 7.51336 2.5 13.7741 2.5H58.2252V55C58.2252 55.25 58.3504 55.5 58.6009 55.625L123.712 79.875V80C123.712 80.375 123.963 80.625 124.338 80.625H200.719V92.5H204.476V2.5H290.874V92.5H294.63V2.5H381.028V92.5H384.785V2.5H471.183V92.5H474.939V2.5H561.337V92.5H565.093V2.5H651.491V92.5H655.248V2.5H741.646V92.5H745.402V2.5H831.8V92.5H835.557V2.5H921.955V92.5H925.711V2.5H1012.11V92.5H1015.87" fill="#A6ACB1"/>
</svg>
