<svg width="30" height="14" viewBox="0 0 30 14" fill="none" xmlns="http://www.w3.org/2000/svg">
<path d="M4.2978 13.4995L0.916992 0.999984H2.67003L4.54824 9.24966C4.79867 10.1246 4.92384 10.9996 5.04905 11.8746C5.4247 10.4996 5.54991 9.74964 5.67513 9.49965L8.05423 0.999984H10.0576L11.8107 7.37474C12.3115 8.99967 12.5619 10.3746 12.8124 11.7496C12.9376 10.9996 13.188 9.99963 13.4384 8.99967L15.4419 0.999984H17.0697L13.6889 13.4995H12.0611L9.43156 3.99987C9.18113 3.2499 9.05593 2.74992 9.05593 2.49993C8.93072 3.1249 8.80552 3.62488 8.68031 3.99987L6.05083 13.4995H4.2978ZM27.7129 8.99967L29.3407 9.37466C28.9651 10.7496 28.339 11.7496 27.4625 12.4995C26.586 13.2495 25.4591 13.6245 24.2069 13.6245C22.8296 13.6245 21.7026 13.3745 20.9513 12.7495C20.0748 12.2495 19.4487 11.3746 19.0731 10.3746C18.5722 9.37466 18.447 8.2497 18.447 6.99975C18.447 5.7498 18.6975 4.49985 19.1984 3.62488C19.6992 2.62492 20.4504 1.87495 21.3269 1.37497C22.2034 0.874991 23.2052 0.625 24.3321 0.625C25.5843 0.625 26.586 0.999984 27.4625 1.62496C28.339 2.24994 28.9651 3.1249 29.2155 4.37485L27.5877 4.74984C27.3372 3.87487 26.8364 3.1249 26.3355 2.74992C25.8347 2.37493 25.0834 2.12494 24.2069 2.12494C23.2052 2.12494 22.4539 2.37493 21.8278 2.87491C21.2018 3.37489 20.7009 3.99987 20.4505 4.74984C20.2001 5.49981 20.0748 6.37477 20.0748 7.12474C20.0748 8.2497 20.2 9.12467 20.5757 9.87464C20.8261 10.6246 21.327 11.2496 22.0783 11.6246C22.7043 11.9996 23.4556 12.2495 24.2069 12.2495C25.0834 12.2495 25.9599 11.9996 26.586 11.4996C26.9616 10.8746 27.4625 10.1246 27.7129 8.99967Z" fill="#A6ACB1"/>
</svg>
