<svg width="1066" height="154" viewBox="0 0 1066 154" fill="none" xmlns="http://www.w3.org/2000/svg">
<path d="M1053.4 0H12.6011C5.62432 0 0.0200195 6.7375 0.0200195 15.125V138.875C0.0200195 147.263 5.62432 154 12.6011 154H1053.4C1060.38 154 1065.98 147.263 1065.98 138.875V15.125C1065.98 6.7375 1060.38 0 1053.4 0ZM960.757 2.75H1012.22V86.625H960.757V2.75ZM113.822 86.625L113.364 2.75H185.305V86.625H113.822ZM112.335 86.2125L112.106 86.075L54.3474 59.95L53.8899 2.75H112.22L112.678 86.4875L112.335 86.2125ZM112.678 133.375V151.25H54.3474V105.463L112.106 132.275V133.375H112.678ZM185.305 151.25H113.822V133.375H185.305V151.25ZM1063.69 138.875C1063.69 145.75 1059.12 151.25 1053.4 151.25H960.757V133.375H1013.37V132H960.757V129.25H957.325V151.25H188.736V129.25H185.305V132H113.822C113.822 131.725 113.707 131.45 113.478 131.313L54.0043 103.813C53.7755 103.675 53.6611 103.813 53.4324 103.95C53.318 104.088 53.2037 104.225 53.2037 104.5V151.25H12.6011C6.88242 151.25 2.30749 145.75 2.30749 138.875V15.125C2.30749 8.25 6.88242 2.75 12.6011 2.75H52.7462L53.2037 60.5C53.2037 60.775 53.318 61.05 53.5468 61.1875L112.563 87.8625C112.678 87.8625 113.021 88 113.135 88H185.305V104.5H224.192V101.75H188.736V2.75H271.085V101.75H235.629V104.5H309.972V101.75H274.516V2.75H356.865V101.75H321.409V104.5H395.752V101.75H360.296V2.75H442.645V101.75H407.189V104.5H481.532V101.75H446.076V2.75H528.425V101.75H492.969V104.5H567.312V101.75H531.856V2.75H614.205V101.75H578.749V104.5H653.092V101.75H617.636V2.75H699.985V101.75H664.529V104.5H738.872V101.75H703.416V2.75H785.765V101.75H750.31V104.5H824.652V101.75H789.196V2.75H871.545V101.75H836.09V104.5H910.432V101.75H874.977V2.75H957.325V101.75H921.87V104.5H960.757V88H1013.37V2.75H1053.4C1059.12 2.75 1063.69 8.25 1063.69 15.125V138.875Z" fill="#A6ACB1"/>
</svg>
