<svg width="50" height="53" viewBox="0 0 50 53" fill="none" xmlns="http://www.w3.org/2000/svg">
<path d="M42.2017 27.0162L48.4006 18.5439C48.7302 18.0935 48.6272 17.4604 48.1719 17.1376L41.3487 12.3005C40.9063 11.9869 40.2961 12.0947 39.8575 12.4135C37.5685 14.0771 32.8773 13.521 34.1997 7.66577C34.2922 7.25628 34.1475 6.82373 33.8079 6.57695L26.9362 1.58362C26.4917 1.26062 25.8699 1.35677 25.5437 1.79895L1.58834 34.2713C1.26255 34.7129 1.35352 35.3346 1.79218 35.6643L8.40827 40.6377C8.86231 40.979 9.51126 40.8629 9.97018 40.5281C12.3894 38.7636 17.6459 39.4747 16.0452 45.3235C15.9317 45.738 16.0627 46.1881 16.4041 46.4493L22.8582 51.386C23.3002 51.7241 23.9331 51.6363 24.2664 51.1908L29.8412 43.7409" stroke="white" stroke-width="1.5"/>
</svg>
